<?xml version="1.0" standalone="no"?>
<!DOCTYPE svg PUBLIC "-//W3C//DTD SVG 20010904//EN"
 "http://www.w3.org/TR/2001/REC-SVG-20010904/DTD/svg10.dtd">
<svg version="1.0" xmlns="http://www.w3.org/2000/svg"
 width="1024.000000pt" height="1024.000000pt" viewBox="0 0 1024.000000 1024.000000"
 preserveAspectRatio="xMidYMid meet">

<g transform="translate(0.000000,1024.000000) scale(0.100000,-0.100000)"
fill="#000000" stroke="none">
<path d="M558 8980 c-59 -18 -116 -69 -147 -132 -69 -136 -21 -297 107 -360
47 -23 48 -23 554 -28 278 -3 509 -7 511 -10 3 -3 30 -93 62 -200 31 -107 72
-247 90 -310 19 -63 45 -153 58 -200 14 -47 53 -179 87 -295 76 -258 90 -304
230 -785 62 -212 121 -412 130 -445 95 -325 368 -1259 387 -1327 l25 -87 -24
-43 c-14 -24 -69 -115 -123 -203 -263 -429 -269 -440 -281 -559 -21 -203 102
-425 286 -514 137 -67 61 -65 1645 -57 787 4 1432 9 1434 11 3 3 -6 28 -19 57
-20 44 -117 331 -139 407 l-6 25 -1320 3 c-1040 2 -1321 5 -1327 15 -4 6 -8
22 -8 34 0 20 316 550 377 630 l24 33 1102 0 1103 0 12 97 c7 53 28 162 47
241 19 79 35 151 35 158 0 12 -182 14 -1185 14 -940 0 -1186 3 -1189 13 -3 6
-36 125 -75 262 -39 138 -91 318 -115 400 -306 1045 -486 1664 -486 1671 0 2
1159 4 2576 4 l2577 0 -7 -32 c-3 -18 -61 -260 -128 -537 -84 -343 -128 -506
-138 -511 -8 -4 -70 -17 -138 -29 -824 -142 -1512 -891 -1602 -1742 -40 -379
24 -757 185 -1105 l44 -94 -19 -57 c-25 -76 -252 -846 -280 -946 -12 -44 -19
-81 -17 -84 3 -2 40 5 84 17 88 24 616 177 852 246 l155 45 110 -51 c150 -71
343 -134 511 -167 130 -25 159 -27 395 -27 273 -1 317 4 535 61 613 159 1166
665 1374 1257 196 557 145 1165 -141 1668 -243 428 -651 762 -1118 917 -99 32
-315 81 -362 81 -16 0 -28 3 -28 8 0 4 16 72 35 152 19 80 64 269 100 420 35
151 85 363 111 470 38 160 45 207 42 260 -8 108 -69 200 -170 256 l-53 29
-2816 3 -2815 2 -16 53 c-9 28 -58 194 -108 367 -51 173 -104 335 -118 359
-41 72 -100 129 -171 164 l-66 32 -605 2 c-333 1 -617 -2 -632 -7z m7260
-2915 c271 -38 552 -154 782 -323 105 -78 263 -240 342 -352 129 -181 233
-417 279 -628 26 -127 37 -413 20 -544 -85 -638 -522 -1162 -1136 -1363 -199
-65 -302 -80 -550 -80 -177 1 -226 4 -310 23 -165 35 -291 81 -464 169 -156
79 -166 82 -205 73 -23 -5 -160 -43 -305 -85 -145 -42 -270 -75 -276 -73 -14
3 -21 -20 99 374 l77 251 -39 64 c-86 141 -175 383 -209 569 -25 136 -25 438
1 575 96 521 433 971 901 1201 313 153 625 200 993 149z"/>
<path d="M6800 5411 c-206 -63 -350 -344 -310 -607 19 -127 70 -250 168 -414
148 -246 451 -547 718 -716 294 -185 653 -282 864 -233 135 31 275 142 337
265 30 62 37 88 41 153 4 75 3 79 -24 109 -20 22 -87 57 -223 116 -106 47
-211 90 -232 96 -53 14 -81 -1 -154 -87 -113 -131 -158 -173 -186 -173 -38 0
-241 105 -339 175 -205 148 -449 450 -407 506 90 122 157 234 157 261 0 17
-31 115 -69 217 -38 102 -72 197 -76 211 -16 53 -46 100 -75 115 -31 16 -145
19 -190 6z"/>
<path d="M3402 6973 c-146 -72 -123 -299 36 -343 25 -6 535 -10 1537 -10 1439
0 1502 1 1540 19 55 25 92 67 106 121 21 80 -9 159 -80 207 l-34 23 -1536 0
c-1394 0 -1539 -2 -1569 -17z"/>
<path d="M3635 6071 c-11 -5 -32 -20 -47 -33 -91 -86 -82 -218 20 -296 l35
-27 1049 -3 c706 -1 1062 1 1088 8 77 21 140 102 140 180 0 54 -33 115 -81
149 l-42 31 -1071 -1 c-589 0 -1080 -4 -1091 -8z"/>
<path d="M2982 3180 c-200 -54 -362 -190 -447 -375 -46 -100 -60 -165 -59
-285 0 -86 5 -119 26 -183 72 -214 230 -378 437 -451 75 -26 100 -30 196 -30
194 -1 325 54 471 199 145 144 204 280 204 475 0 288 -182 543 -456 636 -108
37 -266 43 -372 14z m265 -432 c154 -72 183 -285 56 -399 -76 -69 -172 -81
-265 -36 -89 44 -138 123 -138 222 0 181 180 292 347 213z"/>
<path d="M6285 2394 c-137 -42 -280 -84 -318 -95 l-67 -20 21 -42 c59 -114
164 -227 274 -295 128 -78 323 -110 474 -78 113 24 243 92 329 171 68 63 172
203 172 232 0 7 -10 15 -22 18 -226 49 -386 97 -515 153 -39 18 -77 32 -85 31
-7 0 -125 -34 -263 -75z"/>
</g>
</svg>
